HIERARCHY
ROOT pelvis
{
  OFFSET 0 100 0
  CHANNELS 6 Xposition Yposition Zposition Zrotation Xrotation Yrotation
  JOINT pelvis_right_femur
  {
    OFFSET -10.78128 -3.44521 -0.5502486
    CHANNELS 3 Zrotation Xrotation Yrotation
    JOINT right_femur_tibia
    {
      OFFSET -0.8047443 -44.0398 -0.1307829
      CHANNELS 3 Zrotation Xrotation Yrotation
      JOINT right_tibia_foot
      {
        OFFSET 3.006224 -47.83518 -5
        CHANNELS 3 Zrotation Xrotation Yrotation
        End Site
        {
          OFFSET 0 -5 15
        }
      }
    }
  }
  JOINT pelvis_left_femur
  {
    OFFSET 10.78128 -3.44521 -0.5502486
    CHANNELS 3 Zrotation Xrotation Yrotation
    JOINT left_femur_tibia
    {
      OFFSET 0.8047443 -44.0398 -0.1307829
      CHANNELS 3 Zrotation Xrotation Yrotation
      JOINT left_tibia_foot
      {
        OFFSET -4.370144 -48.10324 -4.275266
        CHANNELS 3 Zrotation Xrotation Yrotation
        End Site
        {
          OFFSET 0 -5 15
        }
      }
    }
  }
  JOINT pelvis_spine1
  {
    OFFSET 0 6.468898 -3.129235
    CHANNELS 3 Zrotation Xrotation Yrotation
    JOINT spine1
    {
      OFFSET 0 23.15396 4.99043
      CHANNELS 3 Zrotation Xrotation Yrotation
      JOINT spine2
      {
        OFFSET 0 20.79997 -5.064912
        CHANNELS 3 Zrotation Xrotation Yrotation
        JOINT neck
        {
          OFFSET 0 14.38658 9.616178
          CHANNELS 3 Zrotation Xrotation Yrotation
          End Site
          {
            OFFSET 0 20 0
          }
        }
      }
      JOINT right_manubrium
      {
        OFFSET -5.722621 16.35077 3.967754
        CHANNELS 3 Zrotation Xrotation Yrotation
        JOINT right_clavicle
        {
          OFFSET -13.16364 1.694482 -4.693211
          CHANNELS 3 Zrotation Xrotation Yrotation
          JOINT right_humerus
          {
            OFFSET -28.5034 -0.3100689 -2.792744
            CHANNELS 3 Zrotation Xrotation Yrotation
            JOINT right_radius
            {
              OFFSET -25.15693 0.02248979 -1.271978
              CHANNELS 3 Zrotation Xrotation Yrotation
              End Site
              {
                OFFSET -15 0 0
              }
            }
          }
        }
      }
      JOINT left_manubrium
      {
        OFFSET 5.722621 16.35077 3.967754
        CHANNELS 3 Zrotation Xrotation Yrotation
        JOINT left_clavicle
        {
          OFFSET 13.16364 1.694482 -4.693211
          CHANNELS 3 Zrotation Xrotation Yrotation
          JOINT left_humerus
          {
            OFFSET 29.39168 -1.063119 -2.237045
            CHANNELS 3 Zrotation Xrotation Yrotation
            JOINT left_radius
            {
              OFFSET 24.59957 -0.9528479 0.9047498
              CHANNELS 3 Zrotation Xrotation Yrotation
              End Site
              {
                OFFSET 15 -0 -0
              }
            }
          }
        }
      }
    }
  }
}
MOTION
Frames: 9
Frame Time: 0.0416666666667
-1494.959 103.6956 944.8901 -6.512371 12.49572 -160.5357 -2.29908 24.22248 -3.504336 -0 42.26479 -0 -15.80038 7.733652 5.993298 -5.131249 -7.261791 -18.48572 -0 17.05888 -0 -6.730937 -6.145758 22.4098 -2.305665 -2.90232 8.800445 -0.9613547 13.97852 -4.35133 -0.7873121 21.24121 7.488861 6.612738 -14.48875 3.751364 4.606854 -23.26199 11.24669 82.00729 30.33794 -11.04817 -0 0 22.35177 -20.52802 10.97209 9.985972 6.34956 -24.59644 -5.606358 -95.56749 13.65386 30.91591 0 0 -5.21814 11.07817 8.91034 2.045602
-1498.029 105.1355 939.546 -7.290969 13.40552 -159.9527 -3.036739 21.62965 -4.347737 -0 49.67186 -0 -18.62723 14.24967 8.418562 -5.853934 -3.553559 -19.88077 -0 18.60971 -0 -6.94857 -7.278727 22.40912 -2.237722 -3.058264 8.738082 -1.090352 14.34216 -4.405779 -0.6578688 21.33293 7.44763 6.827233 -14.23114 3.731062 5.252919 -22.52456 11.13376 82.39792 31.15856 -12.30592 -0 0 21.27909 -19.8839 11.21971 9.174447 6.628756 -25.18486 -5.916007 -95.56739 13.88544 30.0951 0 0 -5.74167 11.85413 9.263387 1.58248
-1500.78 106.7682 934.7439 -7.451542 13.99519 -159.2921 -2.917322 16.76597 -5.063544 -0 54.70139 -0 -20.44908 17.46736 9.645105 -5.745877 0.1672004 -20.05581 -0 18.60233 -0 -6.569102 -8.447915 21.73092 -2.181132 -3.257946 8.683051 -1.234079 14.72977 -4.459182 -0.4903141 21.41937 7.340257 6.998023 -13.97609 3.72309 5.917031 -21.87779 11.01754 82.81158 32.00632 -13.53802 -0 0 20.32313 -19.17523 11.468 8.339821 6.900929 -25.73483 -6.248418 -95.59329 14.12262 29.32087 0 0 -6.261197 12.70872 9.698188 1.050528
-1503.231 108.2313 930.4472 -7.068414 13.91075 -158.7216 -2.327611 10.57066 -5.65401 -0 55.10853 -0 -20.3204 16.64496 9.016932 -5.252169 3.433745 -19.38188 -0 16.97558 -0 -5.883334 -9.976266 20.59733 -2.155905 -3.478084 8.636971 -1.386296 15.10519 -4.499784 -0.2996537 21.49706 7.185326 7.110476 -13.75258 3.738349 6.53707 -21.39011 10.91615 83.19193 32.81693 -14.5865 -0 0 19.59159 -18.49486 11.6906 7.586919 7.137192 -26.16898 -6.563843 -95.63389 14.34364 28.65514 0 0 -6.710213 13.56737 10.16198 0.4888774
-1505.465 109.2162 926.4607 -6.463177 13.0719 -158.2662 -1.768163 4.253676 -6.274724 -0 50.69964 -0 -18.78384 13.18898 7.282107 -4.866728 6.075856 -18.3579 -0 14.40891 -0 -5.097588 -11.9232 19.29851 -2.168886 -3.700066 8.597378 -1.543015 15.4531 -4.523717 -0.101915 21.56731 7.009102 7.174063 -13.56526 3.776632 7.092554 -21.06266 10.84041 83.50893 33.56928 -15.39843 -0 0 19.09335 -17.89536 11.88059 6.961357 7.330059 -26.47179 -6.845228 -95.6755 14.5317 28.10271 0 0 -7.064777 14.39346 10.61654 -0.08256589
-1507.563 109.5953 922.5859 -5.898628 11.74561 -157.8887 -1.451648 -1.417564 -7.005722 -0 43.42656 -0 -16.91305 9.14781 5.529976 -4.782602 8.200664 -17.3015 -0 11.8363 -0 -4.257032 -14.02865 18.09645 -2.217229 -3.918167 8.56245 -1.702039 15.77393 -4.533158 0.09308193 21.63329 6.828144 7.204461 -13.40204 3.830455 7.593065 -20.86609 10.79321 83.75399 34.27025 -15.99354 -0 0 18.79108 -17.38348 12.04279 6.459479 7.486311 -26.66707 -7.094062 -95.71049 14.67945 27.64144 0 0 -7.335349 15.18362 11.05135 -0.6602223
-1509.581 109.3947 918.6994 -5.451348 10.2538 -157.5711 -1.322151 -6.24208 -7.809116 -0 35.35994 -0 -15.27416 5.713045 4.224676 -4.94663 9.975737 -16.32513 -0 9.835298 -0 -3.328195 -16.0095 17.13454 -2.294455 -4.12946 8.531263 -1.859274 16.06688 -4.531936 0.2782624 21.69725 6.652823 7.212789 -13.2532 3.89254 8.047437 -20.77113 10.77396 83.92495 34.92297 -16.40218 -0 0 18.64632 -16.95414 12.18204 6.069034 7.613377 -26.78071 -7.31154 -95.73531 14.78709 27.25261 0 0 -7.538338 15.93154 11.4633 -1.234819
-1511.555 108.7127 914.7335 -5.105087 8.79902 -157.3089 -1.257126 -10.29044 -8.641515 -0 27.64982 -0 -14.02253 3.229574 3.408866 -5.252437 11.51416 -15.43657 -0 8.608655 -0 -2.264253 -17.70492 16.44736 -2.391242 -4.324941 8.502247 -2.008174 16.32502 -4.523118 0.4450559 21.75885 6.495182 7.208143 -13.1178 3.956957 8.451072 -20.75168 10.78002 84.02406 35.5133 -16.64716 -0 0 18.62347 -16.6122 12.29985 5.785334 7.714703 -26.83069 -7.493644 -95.74765 14.85563 26.92808 0 0 -7.680303 16.61324 11.83948 -1.783434
-1513.513 107.6725 910.6446 -4.829583 7.496544 -157.097 -1.150515 -13.67503 -9.483104 -0 20.82713 -0 -13.19487 1.70033 3.020453 -5.613204 12.87336 -14.61027 -0 8.228106 -0 -1.018217 -19.0223 16.02196 -2.495159 -4.491651 8.473926 -2.142676 16.54154 -4.508238 0.5840122 21.8155 6.368115 7.201814 -12.99646 4.015745 8.792758 -20.78064 10.80595 84.06063 36.01651 -16.75369 -0 0 18.68362 -16.36978 12.39664 5.603892 7.792231 -26.83521 -7.639182 -95.7469 14.88185 26.66533 0 0 -7.760218 17.19946 12.15891 -2.278646
